# Wavefront OBJ file automatically generated by Tiled2Unity

# Vertices (Count = 468)
v 0 -16 0
v -16 -16 0
v -16 0 0
v 0 0 0
v -944 -16 0
v -960 -16 0
v -960 0 0
v -944 0 0
v 0 -32 0
v -16 -32 0
v -944 -32 0
v -960 -32 0
v 0 -48 0
v -16 -48 0
v -944 -48 0
v -960 -48 0
v 0 -64 0
v -16 -64 0
v -944 -64 0
v -960 -64 0
v 0 -80 0
v -16 -80 0
v -944 -80 0
v -960 -80 0
v 0 -96 0
v -16 -96 0
v -944 -96 0
v -960 -96 0
v 0 -112 0
v -16 -112 0
v -944 -112 0
v -960 -112 0
v 0 -128 0
v -16 -128 0
v -944 -128 0
v -960 -128 0
v 0 -144 0
v -16 -144 0
v -944 -144 0
v -960 -144 0
v 0 -160 0
v -16 -160 0
v -240 -160 0
v -256 -160 0
v -256 -144 0
v -240 -144 0
v -272 -160 0
v -272 -144 0
v -288 -160 0
v -288 -144 0
v -304 -160 0
v -304 -144 0
v -320 -160 0
v -320 -144 0
v -336 -160 0
v -336 -144 0
v -352 -160 0
v -352 -144 0
v -368 -160 0
v -368 -144 0
v -944 -160 0
v -960 -160 0
v 0 -176 0
v -16 -176 0
v -240 -176 0
v -256 -176 0
v -272 -176 0
v -288 -176 0
v -304 -176 0
v -320 -176 0
v -336 -176 0
v -352 -176 0
v -368 -176 0
v -944 -176 0
v -960 -176 0
v 0 -192 0
v -16 -192 0
v -240 -192 0
v -256 -192 0
v -272 -192 0
v -336 -192 0
v -352 -192 0
v -368 -192 0
v -944 -192 0
v -960 -192 0
v 0 -208 0
v -16 -208 0
v -944 -208 0
v -960 -208 0
v 0 -224 0
v -16 -224 0
v -944 -224 0
v -960 -224 0
v 0 -240 0
v -16 -240 0
v -240 -240 0
v -256 -240 0
v -256 -224 0
v -240 -224 0
v -272 -240 0
v -272 -224 0
v -304 -240 0
v -320 -240 0
v -320 -224 0
v -304 -224 0
v -336 -240 0
v -336 -224 0
v -352 -240 0
v -352 -224 0
v -368 -240 0
v -368 -224 0
v -944 -240 0
v -960 -240 0
v 0 -256 0
v -16 -256 0
v -240 -256 0
v -256 -256 0
v -272 -256 0
v -320 -256 0
v -336 -256 0
v -352 -256 0
v -368 -256 0
v -944 -256 0
v -960 -256 0
v 0 -272 0
v -16 -272 0
v -240 -272 0
v -256 -272 0
v -272 -272 0
v -336 -272 0
v -352 -272 0
v -368 -272 0
v -944 -272 0
v -960 -272 0
v 0 -288 0
v -16 -288 0
v -352 -288 0
v -368 -288 0
v -944 -288 0
v -960 -288 0
v 0 -304 0
v -16 -304 0
v -304 -304 0
v -320 -304 0
v -320 -288 0
v -304 -288 0
v -352 -304 0
v -368 -304 0
v -944 -304 0
v -960 -304 0
v 0 -320 0
v -16 -320 0
v -208 -320 0
v -224 -320 0
v -224 -304 0
v -208 -304 0
v -240 -320 0
v -240 -304 0
v -256 -320 0
v -256 -304 0
v -272 -320 0
v -272 -304 0
v -288 -320 0
v -288 -304 0
v -304 -320 0
v -320 -320 0
v -352 -320 0
v -368 -320 0
v -944 -320 0
v -960 -320 0
v 0 -336 0
v -16 -336 0
v -192 -336 0
v -208 -336 0
v -192 -320 0
v -224 -336 0
v -240 -336 0
v -256 -336 0
v -272 -336 0
v -288 -336 0
v -304 -336 0
v -320 -336 0
v -352 -336 0
v -368 -336 0
v -944 -336 0
v -960 -336 0
v 0 -352 0
v -16 -352 0
v -176 -352 0
v -192 -352 0
v -176 -336 0
v -208 -352 0
v -224 -352 0
v -240 -352 0
v -256 -352 0
v -272 -352 0
v -288 -352 0
v -304 -352 0
v -320 -352 0
v -352 -352 0
v -368 -352 0
v -944 -352 0
v -960 -352 0
v 0 -368 0
v -16 -368 0
v -32 -368 0
v -32 -352 0
v -48 -368 0
v -48 -352 0
v -944 -368 0
v -960 -368 0
v 0 -384 0
v -16 -384 0
v -32 -384 0
v -48 -384 0
v -416 -384 0
v -432 -384 0
v -432 -368 0
v -416 -368 0
v -448 -384 0
v -448 -368 0
v -464 -384 0
v -464 -368 0
v -480 -384 0
v -480 -368 0
v -944 -384 0
v -960 -384 0
v 0 -400 0
v -16 -400 0
v -384 -400 0
v -400 -400 0
v -400 -384 0
v -384 -384 0
v -416 -400 0
v -432 -400 0
v -448 -400 0
v -464 -400 0
v -480 -400 0
v -496 -400 0
v -496 -384 0
v -512 -400 0
v -512 -384 0
v -944 -400 0
v -960 -400 0
v 0 -416 0
v -16 -416 0
v -384 -416 0
v -400 -416 0
v -416 -416 0
v -432 -416 0
v -448 -416 0
v -464 -416 0
v -480 -416 0
v -496 -416 0
v -512 -416 0
v -944 -416 0
v -960 -416 0
v 0 -432 0
v -16 -432 0
v -944 -432 0
v -960 -432 0
v 0 -448 0
v -16 -448 0
v -176 -448 0
v -192 -448 0
v -192 -432 0
v -176 -432 0
v -208 -448 0
v -208 -432 0
v -944 -448 0
v -960 -448 0
v 0 -464 0
v -16 -464 0
v -32 -464 0
v -32 -448 0
v -48 -464 0
v -48 -448 0
v -64 -464 0
v -64 -448 0
v -80 -464 0
v -80 -448 0
v -96 -464 0
v -96 -448 0
v -112 -464 0
v -112 -448 0
v -128 -464 0
v -128 -448 0
v -144 -464 0
v -144 -448 0
v -160 -464 0
v -160 -448 0
v -176 -464 0
v -192 -464 0
v -208 -464 0
v -224 -464 0
v -224 -448 0
v -240 -464 0
v -240 -448 0
v -256 -464 0
v -256 -448 0
v -272 -464 0
v -272 -448 0
v -288 -464 0
v -288 -448 0
v -304 -464 0
v -304 -448 0
v -320 -464 0
v -320 -448 0
v -336 -464 0
v -336 -448 0
v -352 -464 0
v -352 -448 0
v -368 -464 0
v -368 -448 0
v -384 -464 0
v -384 -448 0
v -400 -464 0
v -400 -448 0
v -448 -464 0
v -464 -464 0
v -464 -448 0
v -448 -448 0
v -480 -464 0
v -480 -448 0
v -496 -464 0
v -496 -448 0
v -512 -464 0
v -512 -448 0
v -528 -464 0
v -528 -448 0
v -544 -464 0
v -544 -448 0
v -560 -464 0
v -560 -448 0
v -656 -464 0
v -672 -464 0
v -672 -448 0
v -656 -448 0
v -688 -464 0
v -688 -448 0
v -704 -464 0
v -704 -448 0
v -720 -464 0
v -720 -448 0
v -736 -464 0
v -736 -448 0
v -752 -464 0
v -752 -448 0
v -768 -464 0
v -768 -448 0
v -784 -464 0
v -784 -448 0
v -800 -464 0
v -800 -448 0
v -816 -464 0
v -816 -448 0
v -832 -464 0
v -832 -448 0
v -848 -464 0
v -848 -448 0
v -864 -464 0
v -864 -448 0
v -880 -464 0
v -880 -448 0
v -896 -464 0
v -896 -448 0
v -912 -464 0
v -912 -448 0
v -928 -464 0
v -928 -448 0
v -944 -464 0
v -960 -464 0
v 0 -480 0
v -16 -480 0
v -32 -480 0
v -48 -480 0
v -64 -480 0
v -80 -480 0
v -96 -480 0
v -112 -480 0
v -128 -480 0
v -144 -480 0
v -160 -480 0
v -176 -480 0
v -192 -480 0
v -208 -480 0
v -224 -480 0
v -240 -480 0
v -256 -480 0
v -272 -480 0
v -288 -480 0
v -304 -480 0
v -320 -480 0
v -336 -480 0
v -352 -480 0
v -368 -480 0
v -384 -480 0
v -400 -480 0
v -448 -480 0
v -464 -480 0
v -480 -480 0
v -496 -480 0
v -512 -480 0
v -528 -480 0
v -544 -480 0
v -560 -480 0
v -656 -480 0
v -672 -480 0
v -688 -480 0
v -704 -480 0
v -720 -480 0
v -736 -480 0
v -752 -480 0
v -768 -480 0
v -784 -480 0
v -800 -480 0
v -816 -480 0
v -832 -480 0
v -848 -480 0
v -864 -480 0
v -880 -480 0
v -896 -480 0
v -912 -480 0
v -928 -480 0
v -944 -480 0
v -960 -480 0
v -32 -160 0
v -48 -160 0
v -48 -144 0
v -32 -144 0
v -64 -160 0
v -64 -144 0
v -144 -176 0
v -160 -176 0
v -160 -160 0
v -144 -160 0
v -176 -176 0
v -176 -160 0
v -192 -176 0
v -192 -160 0
v -80 -224 0
v -96 -224 0
v -96 -208 0
v -80 -208 0
v -112 -224 0
v -112 -208 0
v -128 -224 0
v -128 -208 0
v -48 -288 0
v -64 -288 0
v -64 -272 0
v -48 -272 0
v -80 -288 0
v -80 -272 0
v -96 -320 0
v -112 -320 0
v -112 -304 0
v -96 -304 0
v -128 -320 0
v -128 -304 0
v -64 -416 0
v -80 -416 0
v -80 -400 0
v -64 -400 0
v -96 -416 0
v -96 -400 0
v -112 -416 0
v -112 -400 0

# Texture cooridinates (Count = 72)
vt 0.06262207 0.9376221
vt 0.1248779 0.9376221
vt 0.1248779 0.9998779
vt 0.06262207 0.9998779
vt 0.6251221 0.9376221
vt 0.6873779 0.9376221
vt 0.6873779 0.9998779
vt 0.6251221 0.9998779
vt 0.6876221 0.9376221
vt 0.7498779 0.9376221
vt 0.7498779 0.9998779
vt 0.6876221 0.9998779
vt 0.7501221 0.9376221
vt 0.8123779 0.9376221
vt 0.8123779 0.9998779
vt 0.7501221 0.9998779
vt 0.8126221 0.9376221
vt 0.8748779 0.9376221
vt 0.8748779 0.9998779
vt 0.8126221 0.9998779
vt 0.3126221 0.9376221
vt 0.3748779 0.9376221
vt 0.3748779 0.9998779
vt 0.3126221 0.9998779
vt 0.4376221 0.9376221
vt 0.4998779 0.9376221
vt 0.4998779 0.9998779
vt 0.4376221 0.9998779
vt 0.3751221 0.9376221
vt 0.4373779 0.9376221
vt 0.4373779 0.9998779
vt 0.3751221 0.9998779
vt 0.1251221 0.9376221
vt 0.1873779 0.9376221
vt 0.1873779 0.9998779
vt 0.1251221 0.9998779
vt 0.5001221 0.9376221
vt 0.5623779 0.9376221
vt 0.5623779 0.9998779
vt 0.5001221 0.9998779
vt 0.5626221 0.9376221
vt 0.6248779 0.9376221
vt 0.6248779 0.9998779
vt 0.5626221 0.9998779
vt 0.3751221 0.8751221
vt 0.4373779 0.8751221
vt 0.4373779 0.9373779
vt 0.3751221 0.9373779
vt 0.4376221 0.8751221
vt 0.4998779 0.8751221
vt 0.4998779 0.9373779
vt 0.4376221 0.9373779
vt 0.5001221 0.8751221
vt 0.5623779 0.8751221
vt 0.5623779 0.9373779
vt 0.5001221 0.9373779
vt 0.5626221 0.8751221
vt 0.6248779 0.8751221
vt 0.6248779 0.9373779
vt 0.5626221 0.9373779
vt 0.1876221 0.9376221
vt 0.2498779 0.9376221
vt 0.2498779 0.9998779
vt 0.1876221 0.9998779
vt 0.8751221 0.9376221
vt 0.9373779 0.9376221
vt 0.9373779 0.9998779
vt 0.8751221 0.9998779
vt 0.2501221 0.9376221
vt 0.3123779 0.9376221
vt 0.3123779 0.9998779
vt 0.2501221 0.9998779

# Normal
vn 0 0 -1

# Groups (Count = 6)

g mesh_0001
f 1/1/1 2/2/1 3/3/1 4/4/1
f 5/1/1 6/2/1 7/3/1 8/4/1
f 9/1/1 10/2/1 2/3/1 1/4/1
f 11/1/1 12/2/1 6/3/1 5/4/1
f 13/1/1 14/2/1 10/3/1 9/4/1
f 15/1/1 16/2/1 12/3/1 11/4/1
f 17/1/1 18/2/1 14/3/1 13/4/1
f 19/1/1 20/2/1 16/3/1 15/4/1
f 21/1/1 22/2/1 18/3/1 17/4/1
f 23/1/1 24/2/1 20/3/1 19/4/1
f 25/1/1 26/2/1 22/3/1 21/4/1
f 27/1/1 28/2/1 24/3/1 23/4/1
f 29/1/1 30/2/1 26/3/1 25/4/1
f 31/1/1 32/2/1 28/3/1 27/4/1
f 33/1/1 34/2/1 30/3/1 29/4/1
f 35/1/1 36/2/1 32/3/1 31/4/1
f 37/1/1 38/2/1 34/3/1 33/4/1
f 39/1/1 40/2/1 36/3/1 35/4/1
f 41/1/1 42/2/1 38/3/1 37/4/1
f 43/1/1 44/2/1 45/3/1 46/4/1
f 44/1/1 47/2/1 48/3/1 45/4/1
f 47/1/1 49/2/1 50/3/1 48/4/1
f 49/1/1 51/2/1 52/3/1 50/4/1
f 51/1/1 53/2/1 54/3/1 52/4/1
f 53/1/1 55/2/1 56/3/1 54/4/1
f 55/1/1 57/2/1 58/3/1 56/4/1
f 57/1/1 59/2/1 60/3/1 58/4/1
f 61/1/1 62/2/1 40/3/1 39/4/1
f 63/1/1 64/2/1 42/3/1 41/4/1
f 65/1/1 66/2/1 44/3/1 43/4/1
f 66/1/1 67/2/1 47/3/1 44/4/1
f 67/5/1 68/6/1 49/7/1 47/8/1
f 68/9/1 69/10/1 51/11/1 49/12/1
f 69/13/1 70/14/1 53/15/1 51/16/1
f 70/17/1 71/18/1 55/19/1 53/20/1
f 71/1/1 72/2/1 57/3/1 55/4/1
f 72/1/1 73/2/1 59/3/1 57/4/1
f 74/1/1 75/2/1 62/3/1 61/4/1
f 76/1/1 77/2/1 64/3/1 63/4/1
f 78/5/1 79/6/1 66/7/1 65/8/1
f 79/9/1 80/10/1 67/11/1 66/12/1
f 81/13/1 82/14/1 72/15/1 71/16/1
f 82/17/1 83/18/1 73/19/1 72/20/1
f 84/1/1 85/2/1 75/3/1 74/4/1
f 86/1/1 87/2/1 77/3/1 76/4/1
f 88/1/1 89/2/1 85/3/1 84/4/1
f 90/1/1 91/2/1 87/3/1 86/4/1
f 92/1/1 93/2/1 89/3/1 88/4/1
f 94/1/1 95/2/1 91/3/1 90/4/1
f 96/1/1 97/2/1 98/3/1 99/4/1
f 97/1/1 100/2/1 101/3/1 98/4/1
f 102/21/1 103/22/1 104/23/1 105/24/1
f 103/1/1 106/2/1 107/3/1 104/4/1
f 106/1/1 108/2/1 109/3/1 107/4/1
f 108/1/1 110/2/1 111/3/1 109/4/1
f 112/1/1 113/2/1 93/3/1 92/4/1
f 114/1/1 115/2/1 95/3/1 94/4/1
f 116/1/1 117/2/1 97/3/1 96/4/1
f 117/1/1 118/2/1 100/3/1 97/4/1
f 119/21/1 120/22/1 106/23/1 103/24/1
f 120/1/1 121/2/1 108/3/1 106/4/1
f 121/1/1 122/2/1 110/3/1 108/4/1
f 123/1/1 124/2/1 113/3/1 112/4/1
f 125/1/1 126/2/1 115/3/1 114/4/1
f 127/1/1 128/2/1 117/3/1 116/4/1
f 128/1/1 129/2/1 118/3/1 117/4/1
f 130/21/1 131/22/1 121/23/1 120/24/1
f 131/1/1 132/2/1 122/3/1 121/4/1
f 133/1/1 134/2/1 124/3/1 123/4/1
f 135/1/1 136/2/1 126/3/1 125/4/1
f 137/1/1 138/2/1 132/3/1 131/4/1
f 139/1/1 140/2/1 134/3/1 133/4/1
f 141/1/1 142/2/1 136/3/1 135/4/1
f 143/25/1 144/26/1 145/27/1 146/28/1
f 147/1/1 148/2/1 138/3/1 137/4/1
f 149/1/1 150/2/1 140/3/1 139/4/1
f 151/1/1 152/2/1 142/3/1 141/4/1
f 153/29/1 154/30/1 155/31/1 156/32/1
f 154/25/1 157/26/1 158/27/1 155/28/1
f 157/1/1 159/2/1 160/3/1 158/4/1
f 159/1/1 161/2/1 162/3/1 160/4/1
f 161/1/1 163/2/1 164/3/1 162/4/1
f 163/1/1 165/2/1 143/3/1 164/4/1
f 165/1/1 166/2/1 144/3/1 143/4/1
f 167/1/1 168/2/1 148/3/1 147/4/1
f 169/1/1 170/2/1 150/3/1 149/4/1
f 171/1/1 172/2/1 152/3/1 151/4/1
f 173/33/1 174/34/1 153/35/1 175/36/1
f 174/1/1 176/2/1 154/3/1 153/4/1
f 176/1/1 177/2/1 157/3/1 154/4/1
f 177/1/1 178/2/1 159/3/1 157/4/1
f 178/1/1 179/2/1 161/3/1 159/4/1
f 179/1/1 180/2/1 163/3/1 161/4/1
f 180/1/1 181/2/1 165/3/1 163/4/1
f 181/1/1 182/2/1 166/3/1 165/4/1
f 183/1/1 184/2/1 168/3/1 167/4/1
f 185/1/1 186/2/1 170/3/1 169/4/1
f 187/1/1 188/2/1 172/3/1 171/4/1
f 189/33/1 190/34/1 173/35/1 191/36/1
f 190/1/1 192/2/1 174/3/1 173/4/1
f 192/1/1 193/2/1 176/3/1 174/4/1
f 193/1/1 194/2/1 177/3/1 176/4/1
f 194/1/1 195/2/1 178/3/1 177/4/1
f 195/1/1 196/2/1 179/3/1 178/4/1
f 196/1/1 197/2/1 180/3/1 179/4/1
f 197/1/1 198/2/1 181/3/1 180/4/1
f 198/1/1 199/2/1 182/3/1 181/4/1
f 200/1/1 201/2/1 184/3/1 183/4/1
f 202/1/1 203/2/1 186/3/1 185/4/1
f 204/1/1 205/2/1 188/3/1 187/4/1
f 205/1/1 206/2/1 207/3/1 188/4/1
f 206/1/1 208/2/1 209/3/1 207/4/1
f 210/1/1 211/2/1 203/3/1 202/4/1
f 212/1/1 213/2/1 205/3/1 204/4/1
f 213/1/1 214/2/1 206/3/1 205/4/1
f 214/1/1 215/2/1 208/3/1 206/4/1
f 216/29/1 217/30/1 218/31/1 219/32/1
f 217/25/1 220/26/1 221/27/1 218/28/1
f 220/37/1 222/38/1 223/39/1 221/40/1
f 222/41/1 224/42/1 225/43/1 223/44/1
f 226/1/1 227/2/1 211/3/1 210/4/1
f 228/1/1 229/2/1 213/3/1 212/4/1
f 230/29/1 231/30/1 232/31/1 233/32/1
f 231/25/1 234/26/1 216/27/1 232/28/1
f 234/1/1 235/2/1 217/3/1 216/4/1
f 235/1/1 236/2/1 220/3/1 217/4/1
f 236/1/1 237/2/1 222/3/1 220/4/1
f 237/1/1 238/2/1 224/3/1 222/4/1
f 238/37/1 239/38/1 240/39/1 224/40/1
f 239/41/1 241/42/1 242/43/1 240/44/1
f 243/1/1 244/2/1 227/3/1 226/4/1
f 245/1/1 246/2/1 229/3/1 228/4/1
f 247/45/1 248/46/1 231/47/1 230/48/1
f 248/49/1 249/50/1 234/51/1 231/52/1
f 249/1/1 250/2/1 235/3/1 234/4/1
f 250/1/1 251/2/1 236/3/1 235/4/1
f 251/1/1 252/2/1 237/3/1 236/4/1
f 252/1/1 253/2/1 238/3/1 237/4/1
f 253/53/1 254/54/1 239/55/1 238/56/1
f 254/57/1 255/58/1 241/59/1 239/60/1
f 256/1/1 257/2/1 244/3/1 243/4/1
f 258/1/1 259/2/1 246/3/1 245/4/1
f 260/1/1 261/2/1 257/3/1 256/4/1
f 262/1/1 263/2/1 259/3/1 258/4/1
f 264/33/1 265/34/1 266/35/1 267/36/1
f 265/61/1 268/62/1 269/63/1 266/64/1
f 270/1/1 271/2/1 261/3/1 260/4/1
f 272/1/1 273/2/1 263/3/1 262/4/1
f 273/1/1 274/2/1 275/3/1 263/4/1
f 274/1/1 276/2/1 277/3/1 275/4/1
f 276/1/1 278/2/1 279/3/1 277/4/1
f 278/1/1 280/2/1 281/3/1 279/4/1
f 280/1/1 282/2/1 283/3/1 281/4/1
f 282/1/1 284/2/1 285/3/1 283/4/1
f 284/1/1 286/2/1 287/3/1 285/4/1
f 286/1/1 288/2/1 289/3/1 287/4/1
f 288/1/1 290/2/1 291/3/1 289/4/1
f 290/1/1 292/2/1 264/3/1 291/4/1
f 292/1/1 293/2/1 265/3/1 264/4/1
f 293/1/1 294/2/1 268/3/1 265/4/1
f 294/1/1 295/2/1 296/3/1 268/4/1
f 295/1/1 297/2/1 298/3/1 296/4/1
f 297/1/1 299/2/1 300/3/1 298/4/1
f 299/1/1 301/2/1 302/3/1 300/4/1
f 301/1/1 303/2/1 304/3/1 302/4/1
f 303/1/1 305/2/1 306/3/1 304/4/1
f 305/1/1 307/2/1 308/3/1 306/4/1
f 307/1/1 309/2/1 310/3/1 308/4/1
f 309/1/1 311/2/1 312/3/1 310/4/1
f 311/1/1 313/2/1 314/3/1 312/4/1
f 313/1/1 315/2/1 316/3/1 314/4/1
f 315/1/1 317/2/1 318/3/1 316/4/1
f 319/1/1 320/2/1 321/3/1 322/4/1
f 320/1/1 323/2/1 324/3/1 321/4/1
f 323/1/1 325/2/1 326/3/1 324/4/1
f 325/1/1 327/2/1 328/3/1 326/4/1
f 327/1/1 329/2/1 330/3/1 328/4/1
f 329/1/1 331/2/1 332/3/1 330/4/1
f 331/1/1 333/2/1 334/3/1 332/4/1
f 335/1/1 336/2/1 337/3/1 338/4/1
f 336/1/1 339/2/1 340/3/1 337/4/1
f 339/1/1 341/2/1 342/3/1 340/4/1
f 341/1/1 343/2/1 344/3/1 342/4/1
f 343/1/1 345/2/1 346/3/1 344/4/1
f 345/1/1 347/2/1 348/3/1 346/4/1
f 347/1/1 349/2/1 350/3/1 348/4/1
f 349/1/1 351/2/1 352/3/1 350/4/1
f 351/1/1 353/2/1 354/3/1 352/4/1
f 353/1/1 355/2/1 356/3/1 354/4/1
f 355/1/1 357/2/1 358/3/1 356/4/1
f 357/1/1 359/2/1 360/3/1 358/4/1
f 359/1/1 361/2/1 362/3/1 360/4/1
f 361/1/1 363/2/1 364/3/1 362/4/1
f 363/1/1 365/2/1 366/3/1 364/4/1
f 365/1/1 367/2/1 368/3/1 366/4/1
f 367/1/1 369/2/1 370/3/1 368/4/1
f 369/1/1 371/2/1 270/3/1 370/4/1
f 371/1/1 372/2/1 271/3/1 270/4/1
f 373/1/1 374/2/1 273/3/1 272/4/1
f 374/1/1 375/2/1 274/3/1 273/4/1
f 375/1/1 376/2/1 276/3/1 274/4/1
f 376/1/1 377/2/1 278/3/1 276/4/1
f 377/1/1 378/2/1 280/3/1 278/4/1
f 378/1/1 379/2/1 282/3/1 280/4/1
f 379/1/1 380/2/1 284/3/1 282/4/1
f 380/1/1 381/2/1 286/3/1 284/4/1
f 381/1/1 382/2/1 288/3/1 286/4/1
f 382/1/1 383/2/1 290/3/1 288/4/1
f 383/1/1 384/2/1 292/3/1 290/4/1
f 384/1/1 385/2/1 293/3/1 292/4/1
f 385/1/1 386/2/1 294/3/1 293/4/1
f 386/1/1 387/2/1 295/3/1 294/4/1
f 387/1/1 388/2/1 297/3/1 295/4/1
f 388/1/1 389/2/1 299/3/1 297/4/1
f 389/1/1 390/2/1 301/3/1 299/4/1
f 390/1/1 391/2/1 303/3/1 301/4/1
f 391/1/1 392/2/1 305/3/1 303/4/1
f 392/1/1 393/2/1 307/3/1 305/4/1
f 393/1/1 394/2/1 309/3/1 307/4/1
f 394/1/1 395/2/1 311/3/1 309/4/1
f 395/1/1 396/2/1 313/3/1 311/4/1
f 396/1/1 397/2/1 315/3/1 313/4/1
f 397/1/1 398/2/1 317/3/1 315/4/1
f 399/1/1 400/2/1 320/3/1 319/4/1
f 400/1/1 401/2/1 323/3/1 320/4/1
f 401/1/1 402/2/1 325/3/1 323/4/1
f 402/1/1 403/2/1 327/3/1 325/4/1
f 403/1/1 404/2/1 329/3/1 327/4/1
f 404/1/1 405/2/1 331/3/1 329/4/1
f 405/1/1 406/2/1 333/3/1 331/4/1
f 407/1/1 408/2/1 336/3/1 335/4/1
f 408/1/1 409/2/1 339/3/1 336/4/1
f 409/1/1 410/2/1 341/3/1 339/4/1
f 410/1/1 411/2/1 343/3/1 341/4/1
f 411/1/1 412/2/1 345/3/1 343/4/1
f 412/1/1 413/2/1 347/3/1 345/4/1
f 413/1/1 414/2/1 349/3/1 347/4/1
f 414/1/1 415/2/1 351/3/1 349/4/1
f 415/1/1 416/2/1 353/3/1 351/4/1
f 416/1/1 417/2/1 355/3/1 353/4/1
f 417/1/1 418/2/1 357/3/1 355/4/1
f 418/1/1 419/2/1 359/3/1 357/4/1
f 419/1/1 420/2/1 361/3/1 359/4/1
f 420/1/1 421/2/1 363/3/1 361/4/1
f 421/1/1 422/2/1 365/3/1 363/4/1
f 422/1/1 423/2/1 367/3/1 365/4/1
f 423/1/1 424/2/1 369/3/1 367/4/1
f 424/1/1 425/2/1 371/3/1 369/4/1
f 425/1/1 426/2/1 372/3/1 371/4/1

g mesh_0002
f 427/65/1 428/66/1 429/67/1 430/68/1
f 428/65/1 431/66/1 432/67/1 429/68/1
f 433/65/1 434/66/1 435/67/1 436/68/1
f 434/65/1 437/66/1 438/67/1 435/68/1
f 437/65/1 439/66/1 440/67/1 438/68/1
f 441/65/1 442/66/1 443/67/1 444/68/1
f 442/65/1 445/66/1 446/67/1 443/68/1
f 445/65/1 447/66/1 448/67/1 446/68/1
f 449/65/1 450/66/1 451/67/1 452/68/1
f 450/65/1 453/66/1 454/67/1 451/68/1
f 455/65/1 456/66/1 457/67/1 458/68/1
f 456/65/1 459/66/1 460/67/1 457/68/1
f 461/65/1 462/66/1 463/67/1 464/68/1
f 462/65/1 465/66/1 466/67/1 463/68/1
f 465/65/1 467/66/1 468/67/1 466/68/1

g mesh_tile_0263
f 1/29/1 2/30/1 3/31/1 4/32/1

g mesh_tile_0261
f 1/69/1 2/70/1 3/71/1 4/72/1

g mesh_tile_0262
f 1/21/1 2/22/1 3/23/1 4/24/1

g mesh_tile_0260
f 1/61/1 2/62/1 3/63/1 4/64/1

